# xmcd
#
# Track frame offsets:
#	150
#	15747
#	30392
#	45268
#	67758
#	80846
#	94772
#	113687
#	129726
#	141228
#	155786
#	169269
#	184581
#	196735
#	214442
#	225536
#	239410
#
# Disc length: 3390 seconds
#
# Revision: 1
# Processed by: cddbd v1.5.2PL0 Copyright (c) Steve Scherf et al.
# Submitted via: audiograbber 1.83.01
#
DISCID=e30d3c11
DTITLE=Bobby Cash - Phoenix To Elpaso
DYEAR=2006
DGENRE=Country
TTITLE0=Ghost Riders In The Sky
TTITLE1=I Fall To Pieces
TTITLE2=Crazy
TTITLE3=El Paso
TTITLE4=Am I Losing You
TTITLE5=By The Time I Get To Phoenix
TTITLE6=Killing Me Softly
TTITLE7=Seven Spanish Angels
TTITLE8=Folsum Prison Blues
TTITLE9=Six Days On The Road
TTITLE10=Lonesome Fugitive
TTITLE11=Train Train
TTITLE12=Ruby Don't Take Your Guns To Town
TTITLE13=Man Out On The Road
TTITLE14=Something Stupid
TTITLE15=Goodnight Irene
TTITLE16=Amazing Grace
EXTD=
EXTT0=
EXTT1=
EXTT2=
EXTT3=
EXTT4=
EXTT5=
EXTT6=
EXTT7=
EXTT8=
EXTT9=
EXTT10=
EXTT11=
EXTT12=
EXTT13=
EXTT14=
EXTT15=
EXTT16=
PLAYORDER=
